# File created by Blade
# Date/Time:  Fri Jan 16 14:33:41 2015
# Frame Rate: 120.000 fps
#------------------------------------------------------
:FULLY-SPECIFIED
:DEGREES
3759
root 19.197788 35.591249 -25.328085 -170.735100 -5.887846 -179.232357
Spine -17.011189 -2.800498 -0.417300
Head 9.796684 -8.159602 2.478590
LeftShoulder -13.199548 -29.328510 22.213851
LeftArm 4.848563 1.761479 -5.351337
LeftForeArm 10.080854 -0.000000 -1.715856
LeftHand -5.677363 -0.000000 -12.247034
LeftHandThumb1 -26.253704 0.000000 33.147579
RightShoulder -11.520750 -9.448615 -9.014137
RightArm 6.177783 49.261540 16.409588
RightForeArm -32.207717 -0.000000 8.274515
RightHand -8.105202 -0.000000 2.187279
RightHandThumb1 -24.326973 -0.000000 -32.862282
LeftUpLeg 0.412109 6.707855 1.094466
LeftLeg -6.024362 -0.000000 0.000000
LeftFoot -20.847786 25.129345 -15.472914
LeftToeBase 24.677058 -0.000000 -0.000000
RightUpLeg 0.546561 -13.580773 3.469473
RightLeg -4.556397 -0.000000 0.000000
RightFoot -22.310523 -25.429158 17.684057
RightToeBase 21.887219 -0.000000 -0.000000
3760
root 19.197428 35.591542 -25.325634 -170.736173 -5.889414 -179.232715
Spine -17.015544 -2.808597 -0.412549
Head 9.822312 -8.140667 2.459287
LeftShoulder -13.198836 -29.318489 22.213146
LeftArm 4.849826 1.748115 -5.368447
LeftForeArm 10.086561 0.000000 -1.713503
LeftHand -5.674930 0.000000 -12.248203
LeftHandThumb1 -26.253704 0.000000 33.147579
RightShoulder -11.495946 -9.420626 -9.035886
RightArm 6.175350 49.238761 16.426772
RightForeArm -32.233124 -0.000000 8.302406
RightHand -8.086204 -0.000000 2.168354
RightHandThumb1 -24.326973 -0.000000 -32.862282
LeftUpLeg 0.405782 6.707676 1.093270
LeftLeg -6.018496 -0.000000 0.000000
LeftFoot -20.843042 25.125464 -15.462849
LeftToeBase 24.716545 -0.000000 -0.000000
RightUpLeg 0.546627 -13.564024 3.467755
RightLeg -4.560074 -0.000000 0.000000
RightFoot -22.308235 -25.447686 17.679218
RightToeBase 21.917965 -0.000000 -0.000000
3761
root 19.197600 35.592221 -25.323415 -170.731404 -5.885008 -179.230977
Spine -17.031058 -2.796906 -0.412854
Head 9.858184 -8.131066 2.441338
LeftShoulder -13.182454 -29.303375 22.207604
LeftArm 4.856675 1.726184 -5.392132
LeftForeArm 10.092480 -0.000000 -1.714809
LeftHand -5.673335 -0.000000 -12.253466
LeftHandThumb1 -26.253704 0.000000 33.147579
RightShoulder -11.483139 -9.425048 -9.039717
RightArm 6.171377 49.242792 16.428184
RightForeArm -32.268588 0.000000 8.325226
RightHand -8.125042 -0.000000 2.203515
RightHandThumb1 -24.326973 -0.000000 -32.862282
LeftUpLeg 0.395869 6.713616 1.092650
LeftLeg -6.015949 -0.000000 0.000000
LeftFoot -20.840402 25.127576 -15.460341
LeftToeBase 24.692698 -0.000000 -0.000000
RightUpLeg 0.534767 -13.561668 3.470581
RightLeg -4.555128 -0.000000 0.000000
RightFoot -22.300321 -25.441750 17.682250
RightToeBase 21.871497 -0.000000 -0.000000
3762
root 19.198008 35.592820 -25.321168 -170.730574 -5.893086 -179.230159
Spine -17.040595 -2.800309 -0.410018
Head 9.896839 -8.124041 2.417774
LeftShoulder -13.161371 -29.314111 22.207117
LeftArm 4.843942 1.732773 -5.414318
LeftForeArm 10.091631 -0.000000 -1.710159
LeftHand -5.670739 -0.000000 -12.263351
LeftHandThumb1 -26.253704 0.000000 33.147579
RightShoulder -11.465662 -9.429542 -9.037927
RightArm 6.168262 49.199485 16.403621
RightForeArm -32.199995 -0.000000 8.305300
RightHand -8.141655 -0.000000 2.172776
RightHandThumb1 -24.326973 -0.000000 -32.862282
LeftUpLeg 0.389910 6.702634 1.094264
LeftLeg -6.014642 -0.000000 0.000000
LeftFoot -20.841420 25.128794 -15.471886
LeftToeBase 24.688729 -0.000000 -0.000000
RightUpLeg 0.530607 -13.570686 3.474106
RightLeg -4.555662 -0.000000 0.000000
RightFoot -22.306301 -25.436727 17.695944
RightToeBase 21.894654 -0.000000 -0.000000
3763
root 19.197972 35.593619 -25.318329 -170.731144 -5.890794 -179.226624
Spine -17.048859 -2.801086 -0.403297
Head 9.937884 -8.105161 2.395543
LeftShoulder -13.147592 -29.341093 22.208126
LeftArm 4.828444 1.753108 -5.429410
LeftForeArm 10.062503 -0.000000 -1.710259
LeftHand -5.685203 -0.000000 -12.298552
LeftHandThumb1 -26.253704 0.000000 33.147579
RightShoulder -11.436604 -9.431681 -9.042542
RightArm 6.167695 49.216108 16.409798
RightForeArm -32.286195 -0.000000 8.320067
RightHand -8.157450 -0.000000 2.109897
RightHandThumb1 -24.326973 -0.000000 -32.862282
LeftUpLeg 0.384812 6.707010 1.096104
LeftLeg -6.010894 -0.000000 0.000000
LeftFoot -20.831020 25.127195 -15.471010
LeftToeBase 24.657679 -0.000000 -0.000000
RightUpLeg 0.523476 -13.568163 3.477799
RightLeg -4.551912 -0.000000 0.000000
RightFoot -22.307654 -25.435157 17.701519
RightToeBase 21.937192 -0.000000 -0.000000
